<svg width="321" height="321" viewBox="0 0 321 321" fill="none" xmlns="http://www.w3.org/2000/svg">
<path d="M0.5 50.5C0.5 22.8858 22.8858 0.5 50.5 0.5H270.5C298.114 0.5 320.5 22.8858 320.5 50.5V270.5C320.5 298.114 298.114 320.5 270.5 320.5H50.5C22.8858 320.5 0.5 298.114 0.5 270.5V50.5Z" fill="#E22556"/>
<g clip-path="url(#clip0_2196_18)">
<path d="M131.3 75.7C121.5 75.7 113.2 79.1 106.4 85.9C99.5999 92.7 94.5999 102.1 91.3999 114.1C90.7999 114.9 89.6999 115.3 88.0999 115.3C86.6999 115.3 85.1999 115 83.5999 114.4C81.9999 113.8 80.9999 113.3 80.5999 112.9C83.1999 106.1 85.1999 98.6 86.5999 90.4C88.1999 82 89.3999 72.9 90.1999 63.1C93.3999 63.5 97.1999 64 101.6 64.6C106.2 65 110.4 65.2 114.2 65.2H171.2C179.4 65.2 186.6 65.1 192.8 64.9C199 64.7 205.1 64.4 211.1 64C217.3 63.6 224.5 63.1 232.7 62.5C233.3 62.7 234.3 63.5 235.7 64.9C237.1 66.3 237.8 67.6 237.8 68.8C237.8 69 236 71.8 232.4 77.2C228.8 82.4 224 89.3 218 97.9C212.2 106.5 205.6 116.1 198.2 126.7C191 137.3 183.5 148.3 175.7 159.7C167.9 171.1 160.3 182.1 152.9 192.7C145.5 203.1 138.9 212.6 133.1 221.2C127.3 229.6 122.6 236.3 119 241.3C115.6 246.3 113.9 248.8 113.9 248.8H190.4C196.8 248.8 202.1 247.9 206.3 246.1C210.7 244.1 214.5 241.5 217.7 238.3C221.9 234.1 225.1 229.3 227.3 223.9C229.7 218.5 231.7 213.7 233.3 209.5C233.5 209.1 234 208.9 234.8 208.9C235.6 208.7 236.4 208.6 237.2 208.6C238.8 208.6 240.2 208.9 241.4 209.5C242.8 210.1 243.8 210.7 244.4 211.3C242.2 218.9 240.2 225.4 238.4 230.8C236.8 236 235.3 240.8 233.9 245.2C232.7 249.4 231.5 254 230.3 259H83.5999C81.9999 259 80.4999 258.5 79.0999 257.5C77.8999 256.5 77.5999 255.6 78.1999 254.8L202.7 75.7H131.3Z" fill="white"/>
</g>
<defs>
<clipPath id="clip0_2196_18">
<rect width="168" height="197" fill="white" transform="translate(77 62)"/>
</clipPath>
</defs>
</svg>
